<svg width="52" height="52" viewBox="0 0 52 52" fill="none" xmlns="http://www.w3.org/2000/svg">
<g clip-path="url(#clip0_0_942)">
<path d="M40.4278 9.44214V47.8478C40.4278 50.0846 38.6144 51.8984 36.3772 51.8984H4.15216C1.91501 51.8984 0.101562 50.0846 0.101562 47.8478V9.44214C0.101562 7.20499 1.91501 5.39114 4.15216 5.39114H17.7286C17.7286 6.79318 18.864 7.92862 20.2649 7.92862C21.6665 7.92862 22.802 6.79318 22.802 5.39114H36.3772C38.6144 5.39114 40.4278 7.20499 40.4278 9.44214Z" fill="#8B75C8"/>
<path d="M25.8066 37.4659H34.91V51.8984H25.8066V37.4659Z" fill="#1F81A3"/>
<path d="M5.62012 10.4332H34.9098V45.4536H5.62012V10.4332Z" fill="#E6E6E6"/>
<path d="M25.3961 3.42932C24.6054 1.36514 22.6071 -0.101562 20.2652 -0.101562C17.9229 -0.101562 15.9246 1.36514 15.1351 3.42932H11.0924C10.1803 3.42932 9.44043 4.16882 9.44043 5.0813V13.6169H31.0895V5.0813C31.0895 4.16882 30.35 3.42932 29.4375 3.42932H25.3961ZM20.2652 7.92862C18.8643 7.92862 17.7289 6.79318 17.7289 5.39114C17.7289 3.99069 18.8643 2.85486 20.2652 2.85486C21.6668 2.85486 22.8022 3.99069 22.8022 5.39114C22.8022 6.79318 21.6668 7.92862 20.2652 7.92862Z" fill="#FFE14D"/>
<path d="M25.8066 31.021H34.91V45.4536H25.8066V31.021Z" fill="#CCCCCC"/>
<path d="M28.4648 31.021H52.0789V51.8984H28.4648V31.021Z" fill="#FF8E1D"/>
<path d="M44.4102 40.9963L40.2715 38.6616L36.1328 40.9963V31.021H44.4102V40.9963Z" fill="#FF491F"/>
<path d="M20.2651 8.72446C18.4275 8.72446 16.9326 7.22919 16.9326 5.39114C16.9326 3.55389 18.4275 2.05902 20.2651 2.05902C22.1028 2.05902 23.5985 3.55389 23.5985 5.39114C23.5985 7.22919 22.1032 8.72446 20.2651 8.72446ZM20.2651 3.65109C19.3055 3.65109 18.5247 4.43185 18.5247 5.39114C18.5247 6.35162 19.3055 7.13278 20.2651 7.13278C21.2252 7.13278 22.0064 6.35162 22.0064 5.39114C22.0064 4.43185 21.2252 3.65109 20.2651 3.65109Z" fill="#FFBE1D"/>
<path d="M11.5406 25.0248C11.2649 25.0248 11.0078 24.882 10.8626 24.646L9.05832 21.711C8.82821 21.3365 8.94525 20.8461 9.31976 20.616C9.69427 20.3859 10.1846 20.5029 10.4147 20.877L11.4847 22.6179L13.2759 19.1909C13.4799 18.8014 13.9603 18.6506 14.3503 18.8541C14.7399 19.058 14.8906 19.5389 14.6867 19.9285L12.246 24.5976C12.1131 24.8515 11.8545 25.0145 11.5684 25.0244C11.5589 25.0248 11.5498 25.0248 11.5406 25.0248Z" fill="#FF491F"/>
<path d="M27.3526 22.6905H17.165C16.7254 22.6905 16.3691 22.3338 16.3691 21.8943C16.3691 21.4547 16.7254 21.0984 17.165 21.0984H27.3526C27.7922 21.0984 28.1484 21.4547 28.1484 21.8943C28.1484 22.3338 27.7922 22.6905 27.3526 22.6905Z" fill="#3C3F4D"/>
<path d="M11.5406 34.1028C11.2649 34.1028 11.0078 33.9596 10.8626 33.7235L9.05832 30.7885C8.82821 30.414 8.94525 29.9236 9.31976 29.6935C9.69427 29.4634 10.1846 29.5805 10.4147 29.955L11.4847 31.6958L13.2759 28.2685C13.4799 27.8793 13.9603 27.7285 14.3503 27.9321C14.7399 28.1356 14.8906 28.6164 14.6867 29.006L12.246 33.6755C12.1131 33.9294 11.8545 34.0921 11.5684 34.102C11.5589 34.1028 11.5498 34.1028 11.5406 34.1028Z" fill="#FF491F"/>
<path d="M27.3526 31.768H17.165C16.7254 31.768 16.3691 31.4118 16.3691 30.9722C16.3691 30.5326 16.7254 30.1764 17.165 30.1764H27.3526C27.7922 30.1764 28.1484 30.5326 28.1484 30.9722C28.1484 31.4118 27.7922 31.768 27.3526 31.768Z" fill="#3C3F4D"/>
<path d="M28.4648 51.8984L40.2719 49.5923L52.0789 51.8984H28.4648Z" fill="#E2720E"/>
</g>
<defs>
<clipPath id="clip0_0_942">
<rect width="52" height="52" fill="white"/>
</clipPath>
</defs>
</svg>
