<svg width="41" height="41" viewBox="0 0 41 41" fill="none" xmlns="http://www.w3.org/2000/svg">
<g clip-path="url(#clip0_0_925)">
<path d="M0.0800781 6.80476V28.8635C0.0800781 30.8254 1.67038 32.4157 3.63229 32.4157H37.4719C39.4338 32.4157 41.0241 30.8254 41.0241 28.8635V6.80476C41.0241 4.86349 39.4507 3.29008 37.5094 3.29008H3.59476C1.65349 3.29008 0.0800781 4.86349 0.0800781 6.80476Z" fill="#8B75C8"/>
<path d="M28.8103 37.1556L20.552 39.0375L12.293 37.1556L13.4244 32.416L20.2013 29.9242L27.6789 32.416L28.0449 33.9503L28.8103 37.1556Z" fill="#2D303B"/>
<path d="M41.0241 28.4453V28.8632C41.0241 30.8251 39.4332 32.416 37.4712 32.416H3.63198C1.67007 32.416 0.0800781 30.8251 0.0800781 28.8632V28.4453H41.0241Z" fill="#3C3F4D"/>
<path d="M28.8104 37.1556H16.1787L16.9441 33.9503H28.045L28.8104 37.1556Z" fill="#3C3F4D"/>
<path d="M33.6777 39.7944V40.9199H7.42676V39.7944C7.42676 38.3371 8.60822 37.1556 10.0656 37.1556H31.0389C32.4962 37.1556 33.6777 38.3371 33.6777 39.7944Z" fill="#2D303B"/>
<path d="M33.6781 39.7944V40.9199H11.9385V39.7944C11.9385 38.3371 13.1199 37.1556 14.5782 37.1556H31.0393C32.4967 37.1556 33.6781 38.3371 33.6781 39.7944Z" fill="#3C3F4D"/>
<path d="M7.51333 7.93868H24.2375L26.3683 28.4453H5.38281L7.51333 7.93868Z" fill="#FF491F"/>
<path d="M15.7367 14.5689H27.3621L28.8429 28.4452H14.2559L15.7367 14.5689Z" fill="#ED3618"/>
<path d="M17.3239 14.5689H28.949L30.4301 28.4452H15.8428L17.3239 14.5689Z" fill="#FFE14D"/>
<path d="M20.387 10.5709C20.0407 10.5709 19.7604 10.2903 19.7604 9.94407V5.80848C19.7604 3.66608 18.0175 1.92313 15.8751 1.92313C13.7327 1.92313 11.9897 3.66608 11.9897 5.80848V9.94407C11.9897 10.29 11.7092 10.5706 11.3632 10.5706C11.0169 10.5706 10.7363 10.29 10.7363 9.94407V5.80848C10.7363 2.97478 13.0417 0.669716 15.8751 0.669716C18.7085 0.669716 21.0138 2.97509 21.0138 5.80848V9.94407C21.0138 10.2903 20.7333 10.5709 20.387 10.5709Z" fill="#3C3F4D"/>
<path d="M23.1368 23.1154C21.3053 23.1154 19.8154 21.6255 19.8154 19.794V17.0995C19.8154 16.7532 20.096 16.4726 20.4423 16.4726C20.7883 16.4726 21.0688 16.7532 21.0688 17.0995V19.794C21.0688 20.9345 21.9966 21.8619 23.1368 21.8619C24.277 21.8619 25.2048 20.9345 25.2048 19.794V17.0995C25.2048 16.7532 25.4853 16.4726 25.8316 16.4726C26.1776 16.4726 26.4582 16.7532 26.4582 17.0995V19.794C26.4582 21.6255 24.9683 23.1154 23.1368 23.1154Z" fill="white"/>
<path d="M38.1002 6.04621C38.1002 9.42983 35.3572 12.1725 31.9739 12.1725C28.5903 12.1725 25.8477 9.42983 25.8477 6.04621C25.8477 2.66291 28.5903 -0.0800781 31.9739 -0.0800781C35.3572 -0.0800781 38.1002 2.66291 38.1002 6.04621Z" fill="#32CC77"/>
<path d="M31.3312 9.76077C31.1041 9.76077 30.8942 9.63753 30.7835 9.43827L29.1121 6.43002C28.9442 6.12754 29.053 5.74592 29.3558 5.57794C29.6586 5.40997 30.0399 5.51882 30.2079 5.82162L31.2943 7.77665L33.6922 2.84371C33.8433 2.53247 34.2181 2.40266 34.5299 2.55405C34.8412 2.70545 34.9707 3.08051 34.8193 3.39175L31.8948 9.40793C31.7926 9.61814 31.582 9.75389 31.3484 9.76046C31.3427 9.76046 31.3371 9.76077 31.3312 9.76077Z" fill="white"/>
<path d="M38.7316 17.1145H32.7154C32.3695 17.1145 32.0889 16.8339 32.0889 16.488C32.0889 16.1417 32.3695 15.8611 32.7154 15.8611H38.7316C39.0779 15.8611 39.3582 16.1417 39.3582 16.488C39.3582 16.8339 39.0776 17.1145 38.7316 17.1145Z" fill="#3C3F4D"/>
<path d="M38.7321 20.0392H33.9696C33.6234 20.0392 33.3428 19.7587 33.3428 19.4127C33.3428 19.0664 33.6234 18.7858 33.9696 18.7858H38.7321C39.0784 18.7858 39.3586 19.0664 39.3586 19.4127C39.3586 19.7587 39.0781 20.0392 38.7321 20.0392Z" fill="#3C3F4D"/>
</g>
<defs>
<clipPath id="clip0_0_925">
<rect width="41" height="41" fill="white"/>
</clipPath>
</defs>
</svg>
