<svg width="102" height="102" viewBox="0 0 102 102" fill="none" xmlns="http://www.w3.org/2000/svg">
<g clip-path="url(#clip0_0_808)">
<path d="M102 51C102 67.8381 88.3998 81.6 71.3998 81.6C54.5617 81.6 40.7998 67.8381 40.7998 51C40.7998 34.1619 54.3998 20.4 71.2379 20.4C88.3998 20.4 102 34.1619 102 51Z" fill="#FFB600"/>
<path d="M71.3998 20.4C88.2379 20.4 102 34.1619 102 51C102 67.8381 88.3998 81.6 71.3998 81.6C54.5617 81.6 40.7998 67.8381 40.7998 51" fill="#F7981D"/>
<path d="M71.4004 20.4C88.2385 20.4 102 34.1619 102 51C102 67.8381 88.4004 81.6 71.4004 81.6" fill="#FF8500"/>
<path d="M30.2762 20.4C13.6 20.5619 0 34.1619 0 51C0 67.8381 13.6 81.6 30.6 81.6C38.5333 81.6 45.6571 78.5238 51.1619 73.6667C52.2952 72.6953 53.2667 71.5619 54.2381 70.4286H47.9238C47.1143 69.4572 46.3048 68.3238 45.6571 67.3524H56.5048C57.1524 66.381 57.8 65.2476 58.2857 64.1143H43.8762C43.3905 63.1429 42.9048 62.0095 42.5809 60.8762H59.419C60.3905 57.8 61.0381 54.5619 61.0381 51.1619C61.0381 48.8953 60.7143 46.7905 60.3905 44.6857H41.6095C41.7714 43.5524 42.0952 42.581 42.419 41.4476H59.2571C58.9333 40.3143 58.4476 39.181 57.9619 38.2095H43.7143C44.2 37.0762 44.8476 36.1048 45.4952 34.9715H56.3429C55.6952 33.8381 54.8857 32.7048 53.9143 31.7334H47.9238C48.8952 30.6 49.8667 29.6286 51 28.6572C45.6571 23.6381 38.3714 20.7238 30.4381 20.7238C30.4381 20.4 30.4381 20.4 30.2762 20.4Z" fill="#FF5050"/>
<path d="M0 51C0 67.8381 13.6 81.6 30.6 81.6C38.5333 81.6 45.6571 78.5238 51.1619 73.6667C52.2952 72.6952 53.2667 71.5619 54.2381 70.4286H47.9238C47.1143 69.4571 46.3048 68.3238 45.6571 67.3524H56.5048C57.1524 66.381 57.8 65.2476 58.2857 64.1143H43.8762C43.3905 63.1429 42.9048 62.0095 42.5809 60.8762H59.419C60.3905 57.8 61.0381 54.5619 61.0381 51.1619C61.0381 48.8952 60.7143 46.7905 60.3905 44.6857H41.6095C41.7714 43.5524 42.0952 42.581 42.419 41.4476H59.2571C58.9333 40.3143 58.4476 39.181 57.9619 38.2095H43.7143C44.2 37.0762 44.8476 36.1048 45.4952 34.9714H56.3429C55.6952 33.8381 54.8857 32.7048 53.9143 31.7333H47.9238C48.8952 30.6 49.8667 29.6286 51 28.6571C45.6571 23.6381 38.3714 20.7238 30.4381 20.7238H30.2762" fill="#E52836"/>
<path d="M30.6002 81.6C38.5335 81.6 45.6573 78.5238 51.1621 73.6667C52.2954 72.6952 53.2668 71.5619 54.2383 70.4286H47.924C47.1145 69.4571 46.3049 68.3238 45.6573 67.3524H56.5049C57.1526 66.381 57.8002 65.2476 58.2859 64.1143H43.8764C43.3907 63.1429 42.9049 62.0095 42.5811 60.8762H59.4192C60.3907 57.8 61.0383 54.5619 61.0383 51.1619C61.0383 48.8952 60.7145 46.7905 60.3906 44.6857H41.6097C41.7716 43.5524 42.0954 42.581 42.4192 41.4476H59.2573C58.9335 40.3143 58.4478 39.181 57.9621 38.2095H43.7145C44.2002 37.0762 44.8478 36.1048 45.4954 34.9714H56.343C55.6954 33.8381 54.8859 32.7048 53.9145 31.7333H47.924C48.8954 30.6 49.8668 29.6286 51.0002 28.6571C45.6573 23.6381 38.3716 20.7238 30.4383 20.7238H30.2764" fill="#CB2026"/>
<path d="M41.4472 58.7714L41.9329 56.019C41.771 56.019 41.4472 56.1809 41.1234 56.1809C39.99 56.1809 39.8281 55.5333 39.9901 55.2095L40.9615 49.5429H42.7424L43.2281 46.4667H41.6091L41.9329 44.5238H38.6948C38.6948 44.5238 36.752 55.2095 36.752 56.5048C36.752 58.4476 37.8853 59.2571 39.3424 59.2571C40.3139 59.2571 41.1234 58.9333 41.4472 58.7714Z" fill="white"/>
<path d="M42.5811 53.5904C42.5811 58.1238 45.6572 59.2571 48.2477 59.2571C50.6763 59.2571 51.6477 58.7714 51.6477 58.7714L52.2953 55.6952C52.2953 55.6952 50.5144 56.5047 48.8953 56.5047C45.3334 56.5047 45.9811 53.9143 45.9811 53.9143H52.6191C52.6191 53.9143 53.1049 51.8095 53.1049 51C53.1049 48.8952 51.9715 46.3047 48.4096 46.3047C45.0096 45.9809 42.5811 49.5428 42.5811 53.5904ZM48.2477 48.8952C50.0287 48.8952 49.7049 51 49.7049 51.1619H46.143C46.143 51 46.4668 48.8952 48.2477 48.8952Z" fill="white"/>
<path d="M68.8091 58.7714L69.4567 55.2095C69.4567 55.2095 67.8376 56.019 66.7043 56.019C64.4376 56.019 63.4662 54.2381 63.4662 52.2952C63.4662 48.4095 65.4091 46.3047 67.6757 46.3047C69.2948 46.3047 70.59 47.2762 70.59 47.2762L71.0757 43.8762C71.0757 43.8762 69.1329 43.0667 67.3519 43.0667C63.6281 43.0667 59.9043 46.3047 59.9043 52.4571C59.9043 56.5047 61.8472 59.2571 65.7329 59.2571C67.0281 59.2571 68.8091 58.7714 68.8091 58.7714Z" fill="white"/>
<path d="M23.6377 45.981C21.3711 45.981 19.752 46.6286 19.752 46.6286L19.2663 49.381C19.2663 49.381 20.7234 48.7333 22.8282 48.7333C23.9615 48.7333 24.933 48.8952 24.933 49.8667C24.933 50.5143 24.7711 50.6762 24.7711 50.6762C24.7711 50.6762 23.7996 50.6762 23.3139 50.6762C20.5615 50.6762 17.4854 51.8095 17.4854 55.5333C17.4854 58.4476 19.4282 59.0952 20.5615 59.0952C22.8282 59.0952 23.7996 57.6381 23.9615 57.6381L23.7996 58.9333H26.7139L28.0092 50.0286C28.0092 46.1429 24.7711 45.981 23.6377 45.981ZM24.2853 53.2667C24.2853 53.7524 23.9615 56.3429 22.0187 56.3429C21.0473 56.3429 20.7234 55.5333 20.7234 55.0476C20.7234 54.2381 21.2092 53.1048 23.6377 53.1048C24.1234 53.2667 24.2853 53.2667 24.2853 53.2667Z" fill="white"/>
<path d="M31.0861 59.0952C31.8956 59.0952 35.9433 59.2571 35.9433 54.8857C35.9433 50.8381 32.0575 51.6476 32.0575 50.0286C32.0575 49.219 32.7052 48.8952 33.8385 48.8952C34.3242 48.8952 36.1052 49.0571 36.1052 49.0571L36.5909 46.1428C36.5909 46.1428 35.4575 45.819 33.5147 45.819C31.0861 45.819 28.6575 46.7905 28.6575 50.0286C28.6575 53.7524 32.7052 53.4286 32.7052 54.8857C32.7052 55.8571 31.5718 56.019 30.7623 56.019C29.3052 56.019 27.848 55.5333 27.848 55.5333L27.3623 58.4476C27.5242 58.7714 28.3337 59.0952 31.0861 59.0952Z" fill="white"/>
<path d="M95.6856 43.3904L95.038 47.7619C95.038 47.7619 93.7427 46.1428 91.9618 46.1428C89.0475 46.1428 86.457 49.7047 86.457 53.9143C86.457 56.5047 87.7523 59.2571 90.5047 59.2571C92.4475 59.2571 93.5808 57.9619 93.5808 57.9619L93.4189 59.0952H96.657L99.0856 43.5523L95.6856 43.3904ZM94.2285 51.9714C94.2285 53.7523 93.4189 56.019 91.638 56.019C90.5046 56.019 89.857 55.0476 89.857 53.4285C89.857 50.8381 90.9904 49.219 92.4475 49.219C93.5808 49.219 94.2285 50.0285 94.2285 51.9714Z" fill="white"/>
<path d="M5.99025 58.9333L7.93311 47.2762L8.25692 58.9333H10.5236L14.7331 47.2762L12.9522 58.9333H16.3522L18.9426 43.3904H13.5998L10.3617 52.9428L10.1998 43.3904H5.50454L2.91406 58.9333H5.99025Z" fill="white"/>
<path d="M56.181 58.9333C57.1525 53.5905 57.3144 49.219 59.581 50.0286C59.9049 47.9238 60.3906 47.1143 60.7144 46.3047C60.7144 46.3047 60.5525 46.3047 60.0668 46.3047C58.6096 46.3047 57.4763 48.2476 57.4763 48.2476L57.8001 46.4667H54.7239L52.6191 59.0952H56.181V58.9333Z" fill="white"/>
<path d="M76.2569 45.981C73.9902 45.981 72.3712 46.6286 72.3712 46.6286L71.8854 49.381C71.8854 49.381 73.3426 48.7333 75.4473 48.7333C76.5807 48.7333 77.5521 48.8952 77.5521 49.8667C77.5521 50.5143 77.3902 50.6762 77.3902 50.6762C77.3902 50.6762 76.4188 50.6762 75.9331 50.6762C73.1807 50.6762 70.1045 51.8095 70.1045 55.5333C70.1045 58.4476 72.0474 59.0952 73.1807 59.0952C75.4474 59.0952 76.4188 57.6381 76.5807 57.6381L76.4188 58.9333H79.3331L80.6283 50.0286C80.7902 46.1429 77.3902 45.981 76.2569 45.981ZM77.0664 53.2667C77.0664 53.7524 76.7426 56.3429 74.7997 56.3429C73.8283 56.3429 73.5045 55.5333 73.5045 55.0476C73.5045 54.2381 73.9902 53.1048 76.4188 53.1048C76.9045 53.2667 76.9045 53.2667 77.0664 53.2667Z" fill="white"/>
<path d="M83.3803 58.9333C84.3517 53.5905 84.5136 49.219 86.7803 50.0286C87.1041 47.9238 87.5898 47.1143 87.9136 46.3047C87.9136 46.3047 87.7517 46.3047 87.266 46.3047C85.8088 46.3047 84.6755 48.2476 84.6755 48.2476L84.9993 46.4667H81.9231L79.8184 59.0952H83.3803V58.9333Z" fill="white"/>
<path d="M36.4287 56.5048C36.4287 58.4476 37.562 59.2571 39.0192 59.2571C40.1525 59.2571 41.1239 58.9333 41.4478 58.7714L41.9335 56.019C41.7716 56.019 41.4478 56.1809 41.1239 56.1809C39.9906 56.1809 39.8287 55.5333 39.9906 55.2095L40.962 49.5429H42.743L43.2287 46.4667H41.6097L41.9335 44.5238" fill="#DCE5E5"/>
<path d="M44.2002 53.5904C44.2002 58.1238 45.6573 59.2571 48.2478 59.2571C50.6764 59.2571 51.6478 58.7714 51.6478 58.7714L52.2954 55.6952C52.2954 55.6952 50.5145 56.5047 48.8954 56.5047C45.3335 56.5047 45.9811 53.9143 45.9811 53.9143H52.6192C52.6192 53.9143 53.105 51.8095 53.105 51C53.105 48.8952 51.9716 46.3047 48.4097 46.3047C45.0097 45.9809 44.2002 49.5428 44.2002 53.5904ZM48.2478 48.8952C50.0288 48.8952 50.3526 51 50.3526 51.1619H46.1431C46.1431 51 46.4669 48.8952 48.2478 48.8952Z" fill="#DCE5E5"/>
<path d="M68.8092 58.7714L69.4568 55.2095C69.4568 55.2095 67.8377 56.019 66.7044 56.019C64.4377 56.019 63.4663 54.2381 63.4663 52.2952C63.4663 48.4095 65.4092 46.3047 67.6758 46.3047C69.2949 46.3047 70.5901 47.2762 70.5901 47.2762L71.0758 43.8762C71.0758 43.8762 69.133 43.0667 67.352 43.0667C63.6282 43.0667 61.5234 46.3047 61.5234 52.4571C61.5234 56.5047 61.8472 59.2571 65.733 59.2571C67.0282 59.2571 68.8092 58.7714 68.8092 58.7714Z" fill="#DCE5E5"/>
<path d="M19.2663 49.5428C19.2663 49.5428 20.7234 48.8952 22.8282 48.8952C23.9615 48.8952 24.933 49.0571 24.933 50.0286C24.933 50.6762 24.7711 50.8381 24.7711 50.8381C24.7711 50.8381 23.7996 50.8381 23.3139 50.8381C20.5615 50.8381 17.4854 51.9714 17.4854 55.6952C17.4854 58.6095 19.4282 59.2571 20.5615 59.2571C22.8282 59.2571 23.7996 57.8 23.9615 57.8L23.7996 59.0952H26.7139L28.0092 50.1905C28.0092 46.4667 24.7711 46.3047 23.4758 46.3047L19.2663 49.5428ZM25.9044 53.2666C25.9044 53.7524 23.9615 56.3428 22.0187 56.3428C21.0473 56.3428 20.7234 55.5333 20.7234 55.0476C20.7234 54.2381 21.2092 53.1047 23.6377 53.1047C24.1234 53.2666 25.9044 53.2666 25.9044 53.2666Z" fill="#DCE5E5"/>
<path d="M27.5234 58.7714C27.5234 58.7714 28.4949 59.0952 31.2472 59.0952C32.0568 59.0952 36.1044 59.2571 36.1044 54.8857C36.1044 50.8381 32.2187 51.6476 32.2187 50.0286C32.2187 49.219 32.8663 48.8952 33.9996 48.8952C34.4853 48.8952 36.2663 49.0571 36.2663 49.0571L36.752 46.1428C36.752 46.1428 35.6187 45.819 33.6758 45.819C31.2472 45.819 30.4377 46.7905 30.4377 50.0286C30.4377 53.7524 32.8663 53.4286 32.8663 54.8857C32.8663 55.8571 31.733 56.019 30.9234 56.019" fill="#DCE5E5"/>
<path d="M95.0381 47.7619C95.0381 47.7619 93.7429 46.1428 91.9619 46.1428C89.0476 46.1428 88.0762 49.7047 88.0762 53.9143C88.0762 56.5047 87.7524 59.2571 90.5048 59.2571C92.4476 59.2571 93.581 57.9619 93.581 57.9619L93.4191 59.0952H96.6572L99.0857 43.5524L95.0381 47.7619ZM94.8762 51.9714C94.8762 53.7524 93.4191 56.019 91.6381 56.019C90.5048 56.019 89.8572 55.0476 89.8572 53.4286C89.8572 50.8381 90.9905 49.219 92.4476 49.219C93.581 49.219 94.8762 50.0286 94.8762 51.9714Z" fill="#DCE5E5"/>
<path d="M5.99025 58.9333L7.93311 47.2762L8.25692 58.9333H10.5236L14.7331 47.2762L12.9522 58.9333H16.3522L18.9426 43.3904H14.895L10.3617 52.9428L10.1998 43.3904H8.41882L2.91406 58.9333H5.99025Z" fill="#DCE5E5"/>
<path d="M52.7812 58.9333H56.1813C57.1527 53.5905 57.3146 49.219 59.5812 50.0286C59.9051 47.9238 60.3908 47.1143 60.7146 46.3047C60.7146 46.3047 60.5527 46.3047 60.067 46.3047C58.6098 46.3047 57.4765 48.2476 57.4765 48.2476L57.8003 46.4667" fill="#DCE5E5"/>
<path d="M71.8854 49.5428C71.8854 49.5428 73.3426 48.8952 75.4473 48.8952C76.5807 48.8952 77.5521 49.0571 77.5521 50.0286C77.5521 50.6762 77.3902 50.8381 77.3902 50.8381C77.3902 50.8381 76.4188 50.8381 75.9331 50.8381C73.1807 50.8381 70.1045 51.9714 70.1045 55.6952C70.1045 58.6095 72.0474 59.2571 73.1807 59.2571C75.4474 59.2571 76.4188 57.8 76.5807 57.8L76.4188 59.0952H79.3331L80.6283 50.1905C80.6283 46.4667 77.3902 46.3047 76.095 46.3047L71.8854 49.5428ZM78.5235 53.2666C78.5235 53.7524 76.5807 56.3428 74.6378 56.3428C73.6664 56.3428 73.3426 55.5333 73.3426 55.0476C73.3426 54.2381 73.8283 53.1047 76.2569 53.1047C76.9045 53.2666 78.5235 53.2666 78.5235 53.2666Z" fill="#DCE5E5"/>
<path d="M79.9805 58.9333H83.3805C84.3519 53.5905 84.5138 49.219 86.7805 50.0286C87.1043 47.9238 87.59 47.1143 87.9138 46.3047C87.9138 46.3047 87.7519 46.3047 87.2662 46.3047C85.809 46.3047 84.6757 48.2476 84.6757 48.2476L84.9995 46.4667" fill="#DCE5E5"/>
</g>
<defs>
<clipPath id="clip0_0_808">
<rect width="102" height="102" fill="white"/>
</clipPath>
</defs>
</svg>
