<svg width="138" height="39" viewBox="0 0 138 39" fill="none" xmlns="http://www.w3.org/2000/svg">
<g clip-path="url(#clip0_0_860)">
<path fill-rule="evenodd" clip-rule="evenodd" d="M99.5342 17.6193V39H111.431V26.3299H124.913C130.588 26.2879 135.408 22.6686 137.226 17.6193H99.5342Z" fill="#37A72E"/>
<path fill-rule="evenodd" clip-rule="evenodd" d="M97.9482 0C98.6412 8.73925 106.922 15.6396 117.035 15.6396C117.068 15.6396 137.721 15.6396 137.721 15.6396C137.873 14.8381 137.953 14.0109 137.953 13.165C137.953 5.92559 132.103 0.0535556 124.867 0.000364251L97.9482 0Z" fill="url(#paint0_linear_0_860)"/>
<path fill-rule="evenodd" clip-rule="evenodd" d="M80.3418 15.4316L80.3511 15.4117L80.3523 15.412C80.4743 15.1935 80.708 15.0457 80.9763 15.0457C81.3639 15.0457 81.6793 15.3541 81.6898 15.7385L81.6901 15.7386V38.802H93.5866V0H81.6901C80.1815 0.050136 78.477 1.15547 77.8433 2.51229L68.376 22.7838C68.3526 22.8666 68.316 22.944 68.2687 23.0134L68.2655 23.0202L68.2643 23.0198C68.1211 23.2256 67.8826 23.3604 67.6125 23.3604C67.1745 23.3604 66.8194 23.0059 66.8194 22.5685V0H54.9229V38.802H66.8194V38.7976C68.3115 38.7198 69.9759 37.6269 70.6004 36.2897L80.3174 15.4839C80.3248 15.4661 80.333 15.4487 80.3418 15.4316Z" fill="#37A72E"/>
<path fill-rule="evenodd" clip-rule="evenodd" d="M35.9183 16.0949L28.9653 38.802H20.4072L13.45 16.0811C13.3829 15.7173 13.0635 15.4416 12.6797 15.4416C12.2472 15.4416 11.8966 15.7917 11.8966 16.2236C11.8966 16.2269 11.8966 16.2302 11.8966 16.2335L11.8966 38.802H0V0H10.2112H13.2523C15.4413 0 17.7352 1.69617 18.3749 3.78523L24.1647 22.6934C24.4527 23.6342 24.9201 23.6331 25.2078 22.6934L30.9976 3.78523C31.6377 1.69471 33.9309 0 36.1202 0L39.1604 0H49.3707V38.802H37.4741V16.2335C37.4741 16.2302 37.4741 16.2269 37.4741 16.2236C37.4741 15.7917 37.1235 15.4416 36.6909 15.4416C36.3023 15.4416 35.9798 15.7243 35.9183 16.0949Z" fill="#37A72E"/>
</g>
<defs>
<linearGradient id="paint0_linear_0_860" x1="97.9482" y1="7.8198" x2="137.953" y2="7.8198" gradientUnits="userSpaceOnUse">
<stop stop-color="#00A0E5"/>
<stop offset="1" stop-color="#0077C3"/>
</linearGradient>
<clipPath id="clip0_0_860">
<rect width="138" height="39" fill="white"/>
</clipPath>
</defs>
</svg>
