<svg width="49" height="49" viewBox="0 0 49 49" fill="none" xmlns="http://www.w3.org/2000/svg">
<g clip-path="url(#clip0_0_915)">
<path d="M39.3149 48.9043H2.00977L5.79677 12.45H35.5268L36.159 18.5339L39.3149 48.9043Z" fill="#8B75C8"/>
<path d="M21.1691 24.2372H41.8346L44.4676 48.9043H18.5361L21.1691 24.2372Z" fill="#ED3618"/>
<path d="M23.2371 24.2372H43.9026L46.5356 48.9043H20.6045L23.2371 24.2372Z" fill="#FFE14D"/>
<path d="M36.1591 18.5339C33.4921 17.68 31.4985 15.3174 31.1855 12.45H35.527L36.1591 18.5339Z" fill="#ED3618"/>
<path d="M47.0623 11.656C47.0623 15.6441 43.8293 18.8774 39.8412 18.8774C35.8531 18.8774 32.6201 15.6441 32.6201 11.656C32.6201 7.66784 35.8531 4.43487 39.8412 4.43487C43.8293 4.43487 47.0623 7.66784 47.0623 11.656Z" fill="#32CC77"/>
<path d="M39.2662 16.0949C38.9985 16.0949 38.751 15.9499 38.6205 15.7151L36.6508 12.1692C36.4526 11.8126 36.5809 11.3629 36.9375 11.1647C37.2945 10.9666 37.7443 11.0952 37.9424 11.4518L39.2228 13.7566L42.049 7.94186C42.2273 7.57513 42.6692 7.42185 43.0363 7.60055C43.4034 7.77887 43.5563 8.22075 43.3776 8.58786L39.9305 15.6792C39.8101 15.9271 39.5619 16.0871 39.2863 16.0946C39.2796 16.0949 39.2729 16.0949 39.2662 16.0949Z" fill="#E5E5E5"/>
<path d="M28.6825 16.7544C28.2743 16.7544 27.9438 16.4236 27.9438 16.0157V8.66375C27.9438 4.64833 24.6772 1.38171 20.6618 1.38171C16.6464 1.38171 13.3798 4.64833 13.3798 8.66375V16.0157C13.3798 16.4236 13.0489 16.7544 12.6411 16.7544C12.2332 16.7544 11.9023 16.4236 11.9023 16.0157V8.66375C11.9023 3.83373 15.8318 -0.0957031 20.6618 -0.0957031C25.4918 -0.0957031 29.4212 3.83373 29.4212 8.66375V16.0157C29.4212 16.4236 29.0904 16.7544 28.6825 16.7544Z" fill="#3C3F4D"/>
<path d="M33.5697 39.0544C30.5211 39.0544 28.041 36.5743 28.041 33.5256V28.7352C28.041 28.3274 28.3715 27.9965 28.7793 27.9965C29.1876 27.9965 29.5181 28.3274 29.5181 28.7352V33.5256C29.5181 35.7593 31.3357 37.5769 33.5697 37.5769C35.8038 37.5769 37.621 35.7593 37.621 33.5256V28.7352C37.621 28.3274 37.9519 27.9965 38.3597 27.9965C38.768 27.9965 39.0985 28.3274 39.0985 28.7352V33.5256C39.0985 36.5743 36.6184 39.0544 33.5697 39.0544Z" fill="#3C3F4D"/>
</g>
<defs>
<clipPath id="clip0_0_915">
<rect width="49" height="49" fill="white"/>
</clipPath>
</defs>
</svg>
