<svg width="55" height="55" viewBox="0 0 55 55" fill="none" xmlns="http://www.w3.org/2000/svg">
<g clip-path="url(#clip0_0_956)">
<path d="M28.5809 35.3678V50.0372C28.5809 51.677 27.252 53.006 25.6117 53.006H2.97172C1.33186 53.006 0.00292969 51.677 0.00292969 50.0372V35.3678C0.00292969 33.7279 1.33186 32.399 2.97172 32.399H25.6117C27.252 32.399 28.5809 33.7279 28.5809 35.3678Z" fill="#8B75C8"/>
<path d="M28.5809 35.3678V38.914H0.00292969V35.3678C0.00292969 33.7279 1.33186 32.399 2.97172 32.399H25.6117C27.252 32.399 28.5809 33.7279 28.5809 35.3678Z" fill="#83B2C6"/>
<path d="M3.93479 36.725C3.60456 36.725 3.29907 36.5244 3.1648 36.2235C3.01457 35.887 3.10857 35.4779 3.39013 35.2404C3.96794 34.7528 4.88145 35.2513 4.76773 36.0062C4.70647 36.4136 4.3477 36.725 3.93479 36.725Z" fill="#E6E6E6"/>
<path d="M9.66355 36.7236C8.90447 36.7236 8.53688 35.7535 9.10336 35.2516C9.67992 34.7409 10.6081 35.2445 10.4969 36.0031C10.4369 36.411 10.0769 36.7236 9.66355 36.7236Z" fill="#E6E6E6"/>
<path d="M6.79951 36.7236C6.4399 36.7236 6.11259 36.487 6.00014 36.1454C5.8881 35.8034 6.00979 35.4102 6.30478 35.2C6.92665 34.7565 7.80784 35.3326 7.61608 36.0862C7.52167 36.4563 7.1822 36.7236 6.79951 36.7236Z" fill="#E6E6E6"/>
<path d="M49.1365 46.2279H46.534C46.0686 46.2279 45.6914 45.8507 45.6914 45.3853C45.6914 44.92 46.0686 44.5427 46.534 44.5427H49.1365C49.4751 44.5427 49.7508 44.2675 49.7508 43.9288V42.6066C49.7508 42.1413 50.128 41.764 50.5934 41.764C51.0587 41.764 51.436 42.1413 51.436 42.6066V43.9288C51.4355 45.1965 50.4041 46.2279 49.1365 46.2279Z" fill="#8B75C8"/>
<path d="M51.4354 34.5185H49.7502V22.836C49.7502 22.5733 49.7426 22.3098 49.7275 22.0525L51.4098 21.9535C51.4266 22.2435 51.4354 22.5405 51.4354 22.836V34.5185Z" fill="#8B75C8"/>
<path d="M23.7326 33.7947H22.0479V26.7623C22.0479 18.6599 28.6392 12.0682 36.7416 12.0682C39.3952 12.0682 41.9947 12.7832 44.2598 14.1352C44.2758 14.1449 44.2913 14.1549 44.3064 14.1654L47.0755 16.0764L46.1183 17.4632L43.3723 15.5682C41.3741 14.3807 39.0818 13.7534 36.7416 13.7534C29.5686 13.7534 23.7326 19.5894 23.7326 26.7623V33.7947Z" fill="#8B75C8"/>
<path d="M47.4049 23.7344V38.5896C47.4049 44.4785 42.6309 49.2525 36.742 49.2525C30.8531 49.2525 26.0791 44.4785 26.0791 38.5896V27.9263" fill="#FFDCB6"/>
<path d="M36.6665 49.2521C33.7518 49.2324 31.1158 48.0428 29.2019 46.1297C27.2725 44.1995 26.0791 41.5345 26.0791 38.5896V27.9263H30.8795V38.5896C30.8795 41.5345 31.5354 44.1995 32.5966 46.1297C33.641 48.0293 35.0774 49.2152 36.6665 49.2521Z" fill="#EDC59D"/>
<path d="M36.7412 44.2507C35.6087 44.2507 34.4761 43.8193 33.6142 42.9574C33.2848 42.6284 33.2848 42.0947 33.6142 41.7657C33.9432 41.4367 34.4765 41.4367 34.8055 41.7657C35.8726 42.8332 37.6098 42.8332 38.6769 41.7657C39.0059 41.4367 39.5396 41.4367 39.8686 41.7657C40.1976 42.0947 40.1976 42.6284 39.8686 42.9574C39.0063 43.8193 37.8738 44.2507 36.7412 44.2507Z" fill="#FF491F"/>
<path d="M41.4627 37.6824C40.9974 37.6824 40.6201 37.3052 40.6201 36.8398V34.4312C40.6201 33.9659 40.9974 33.5886 41.4627 33.5886C41.9276 33.5886 42.3049 33.9659 42.3049 34.4312V36.8398C42.3049 37.3052 41.9276 37.6824 41.4627 37.6824Z" fill="#2D303B"/>
<path d="M32.0203 37.6824C31.555 37.6824 31.1777 37.3052 31.1777 36.8398V34.4312C31.1777 33.9659 31.555 33.5886 32.0203 33.5886C32.4853 33.5886 32.8625 33.9659 32.8625 34.4312V36.8398C32.8625 37.3052 32.4853 37.6824 32.0203 37.6824Z" fill="#2D303B"/>
<path d="M52.1472 14.3478C50.4368 14.3428 49.0487 15.7275 49.0487 17.4366C49.0487 15.7309 47.6661 14.3478 45.96 14.3478C44.2542 14.3478 42.8716 15.7309 42.8716 17.4366H33.0697C29.3335 17.4366 26.3047 20.4654 26.3047 24.2021V32.7661C30.239 32.8504 29.6075 28.0731 29.6075 28.0731H44.5899C50.4284 28.0731 55.1684 23.3688 55.2259 17.5436C55.2427 15.8278 53.863 14.3533 52.1472 14.3478Z" fill="#3C3F4D"/>
<path d="M46.4709 14.3035C46.2191 14.2368 45.9543 14.2011 45.6816 14.2011C43.9754 14.2011 42.5928 15.5842 42.5928 17.2899H44.1718C44.1718 15.8573 45.1478 14.6526 46.4709 14.3035Z" fill="#2D303B"/>
<path d="M52.7018 14.3035C52.4496 14.2368 52.1852 14.2011 51.912 14.2011C50.2063 14.2011 48.8232 15.5842 48.8232 17.2899H50.4027C50.4027 15.8573 51.3783 14.6526 52.7018 14.3035Z" fill="#2D303B"/>
<path d="M32.8437 17.2899H35.5511C31.8153 17.2899 28.786 20.3191 28.786 24.055V31.2841C28.3102 32.057 27.4865 32.6495 26.0791 32.6193V24.055C26.0791 20.3191 29.1079 17.2899 32.8437 17.2899Z" fill="#2D303B"/>
<path d="M26.0789 33.7947V40.3923C26.0789 41.4069 25.3966 42.2621 24.4655 42.5231C24.2741 42.5777 24.0727 42.6066 23.8646 42.6066H23.0039C21.7812 42.6066 20.79 41.6151 20.79 40.3923V33.7947C20.79 32.5719 21.7812 31.5804 23.0039 31.5804H23.8646C24.0727 31.5804 24.2741 31.6089 24.4655 31.6639C25.3966 31.9249 26.0789 32.78 26.0789 33.7947Z" fill="#ED3618"/>
<path d="M26.0788 33.7947V40.3923C26.0788 41.4069 25.3965 42.2621 24.4654 42.5231C23.5339 42.2621 22.8516 41.4069 22.8516 40.3923V33.7947C22.8516 32.78 23.5339 31.9249 24.4654 31.6638C25.3965 31.9249 26.0788 32.78 26.0788 33.7947Z" fill="#FF491F"/>
<path d="M52.6936 33.7947V40.3923C52.6936 41.4069 52.0113 42.2621 51.0797 42.5231C50.8888 42.5777 50.6874 42.6066 50.4792 42.6066H49.6186C48.3959 42.6066 47.4043 41.6151 47.4043 40.3923V33.7947C47.4043 32.5719 48.3959 31.5804 49.6186 31.5804H50.4792C50.6874 31.5804 50.8888 31.6089 51.0797 31.6639C52.0113 31.9249 52.6936 32.78 52.6936 33.7947Z" fill="#ED3618"/>
<path d="M52.6941 33.7947V40.3923C52.6941 41.4069 52.0118 42.2621 51.0802 42.5231C50.1491 42.2621 49.4668 41.4069 49.4668 40.3923V33.7947C49.4668 32.78 50.1491 31.9249 51.0802 31.6638C52.0118 31.9249 52.6941 32.78 52.6941 33.7947Z" fill="#FF491F"/>
<path d="M44.024 43.5029H44.6517C45.6911 43.5029 46.5341 44.3459 46.5341 45.3853C46.5341 46.4251 45.6911 47.2681 44.6517 47.2681H44.024C42.9846 47.2681 42.1416 46.4251 42.1416 45.3853C42.1416 44.3455 42.9846 43.5029 44.024 43.5029Z" fill="#3C3F4D"/>
<path d="M2.74052 2.04103H19.0519C20.5654 2.04103 21.7928 3.26799 21.7928 4.78155V17.6411C21.7928 19.1547 20.5654 20.3816 19.0519 20.3816H17.4477V26.6725L11.1568 20.3816H2.74052C1.22696 20.3816 0 19.1547 0 17.6411V4.78155C0 3.26799 1.22696 2.04103 2.74052 2.04103Z" fill="#8B75C8"/>
<path d="M5.05515 43.2411H3.03302C2.56767 43.2411 2.19043 42.8638 2.19043 42.3985C2.19043 41.9331 2.56767 41.5559 3.03302 41.5559H5.05515C5.52051 41.5559 5.89732 41.9331 5.89732 42.3985C5.89732 42.8638 5.52051 43.2411 5.05515 43.2411Z" fill="#FF491F"/>
<path d="M15.3891 43.2411H7.75079C7.28544 43.2411 6.9082 42.8638 6.9082 42.3985C6.9082 41.9331 7.28544 41.5559 7.75079 41.5559H15.3891C15.8544 41.5559 16.2317 41.9331 16.2317 42.3985C16.2317 42.8638 15.8544 43.2411 15.3891 43.2411Z" fill="#3C3F4D"/>
<path d="M5.05515 46.6672H3.03302C2.56767 46.6672 2.19043 46.29 2.19043 45.8246C2.19043 45.3593 2.56767 44.9821 3.03302 44.9821H5.05515C5.52051 44.9821 5.89732 45.3593 5.89732 45.8246C5.89732 46.29 5.52051 46.6672 5.05515 46.6672Z" fill="#FFE14D"/>
<path d="M15.3891 46.6672H7.75079C7.28544 46.6672 6.9082 46.29 6.9082 45.8246C6.9082 45.3593 7.28544 44.9821 7.75079 44.9821H15.3891C15.8544 44.9821 16.2317 45.3593 16.2317 45.8246C16.2317 46.29 15.8544 46.6672 15.3891 46.6672Z" fill="#3C3F4D"/>
<path d="M5.05515 50.0934H3.03302C2.56767 50.0934 2.19043 49.7162 2.19043 49.2508C2.19043 48.7855 2.56767 48.4082 3.03302 48.4082H5.05515C5.52051 48.4082 5.89732 48.7855 5.89732 49.2508C5.89732 49.7162 5.52051 50.0934 5.05515 50.0934Z" fill="#FFE14D"/>
<path d="M15.3891 50.0934H7.75079C7.28544 50.0934 6.9082 49.7162 6.9082 49.2508C6.9082 48.7855 7.28544 48.4082 7.75079 48.4082H15.3891C15.8544 48.4082 16.2317 48.7855 16.2317 49.2508C16.2317 49.7162 15.8544 50.0934 15.3891 50.0934Z" fill="#3C3F4D"/>
<path d="M11.7637 10.4086V7.93497C12.1791 7.99959 12.4573 8.14058 12.6818 8.2543C12.8731 8.35165 13.0246 8.42802 13.1933 8.42802C13.7325 8.42802 13.9658 7.76754 13.9658 7.43059C13.9658 6.71011 12.8333 6.37735 11.7637 6.30434V6.15034C11.7637 5.77478 11.4582 5.4693 11.0822 5.4693C10.7067 5.4693 10.4012 5.77478 10.4012 6.15034V6.34756C8.76467 6.61989 7.82683 7.61774 7.82683 9.08849C7.82683 10.8962 9.30891 11.4639 10.4012 11.8747V14.6501C9.79357 14.536 9.39913 14.2301 9.08106 13.9829C8.82342 13.7836 8.62032 13.6258 8.38869 13.6258C7.92418 13.6258 7.57422 14.2393 7.57422 14.6371C7.57422 15.3907 8.73362 16.2946 10.4012 16.397V16.4704C10.4012 16.6802 10.4981 16.8762 10.6651 17.005C10.7637 17.0981 10.9068 17.1514 11.0579 17.1514C11.0612 17.1514 11.065 17.151 11.0726 17.1506L11.0826 17.1514C11.4582 17.1514 11.7637 16.8459 11.7637 16.4704V16.3206C13.3242 15.9887 14.2188 14.9103 14.2188 13.3585C14.2188 11.6028 13.0414 10.9012 11.7637 10.4086ZM12.4489 13.5415C12.4489 14.019 12.2122 14.3702 11.7637 14.5599V12.4521C12.237 12.7295 12.4489 13.0673 12.4489 13.5415ZM10.4012 8.01637V9.89038C9.97862 9.69778 9.59719 9.44013 9.59719 8.90554C9.59719 8.47711 9.87498 8.17037 10.4012 8.01637Z" fill="#32CC77"/>
<path d="M52.235 4.03674H31.7904C31.3251 4.03674 30.9482 3.6595 30.9482 3.19415C30.9482 2.72879 31.3251 2.35197 31.7904 2.35197H52.235C52.7003 2.35197 53.0776 2.72879 53.0776 3.19415C53.0776 3.6595 52.7003 4.03674 52.235 4.03674Z" fill="#3C3F4D"/>
<path d="M52.2349 7.45074H37.1824C36.7171 7.45074 36.3398 7.0735 36.3398 6.60815C36.3398 6.14321 36.7171 5.76598 37.1824 5.76598H52.2349C52.7003 5.76598 53.0775 6.14321 53.0775 6.60815C53.0775 7.0735 52.7003 7.45074 52.2349 7.45074Z" fill="#2D303B"/>
</g>
<defs>
<clipPath id="clip0_0_956">
<rect width="55" height="55" fill="white"/>
</clipPath>
</defs>
</svg>
