<svg width="125" height="125" viewBox="0 0 125 125" fill="none" xmlns="http://www.w3.org/2000/svg">
<g clip-path="url(#clip0_0_868)">
<path d="M45.833 80.4563L52.1822 44.7421H62.1028L55.9521 80.4563H45.833Z" fill="#3C58BF"/>
<path d="M45.833 80.4563L53.9679 44.7421H62.1028L55.9521 80.4563H45.833Z" fill="#293688"/>
<path d="M91.8649 45.1389C89.8808 44.3453 86.7062 43.5516 82.738 43.5516C72.8173 43.5516 65.6745 48.512 65.6745 55.6548C65.6745 61.012 70.6348 63.7897 74.603 65.5754C78.5713 67.3612 79.7618 68.5516 79.7618 70.1389C79.7618 72.5199 76.5872 73.7104 73.8094 73.7104C69.8411 73.7104 67.6586 73.1151 64.2856 71.7262L62.8967 71.131L61.5078 79.2659C63.8888 80.258 68.2538 81.2501 72.8173 81.2501C83.3332 81.2501 90.2776 76.2897 90.2776 68.7501C90.2776 64.5834 87.6983 61.4088 81.7459 58.8294C78.1745 57.0437 75.9919 56.0516 75.9919 54.2659C75.9919 52.6786 77.7777 51.0913 81.7459 51.0913C85.1189 51.0913 87.4999 51.6866 89.2856 52.4802L90.2776 52.877L91.8649 45.1389Z" fill="#3C58BF"/>
<path d="M91.8649 45.1389C89.8808 44.3453 86.7062 43.5516 82.738 43.5516C72.8173 43.5516 67.4602 48.512 67.4602 55.6548C67.4602 61.012 70.6348 63.7897 74.603 65.5754C78.5713 67.3612 79.7618 68.5516 79.7618 70.1389C79.7618 72.5199 76.5872 73.7104 73.8094 73.7104C69.8411 73.7104 67.6586 73.1151 64.2856 71.7262L62.8967 71.131L61.5078 79.2659C63.8888 80.258 68.2538 81.2501 72.8173 81.2501C83.3332 81.2501 90.2776 76.2897 90.2776 68.7501C90.2776 64.5834 87.6983 61.4088 81.7459 58.8294C78.1745 57.0437 75.9919 56.0516 75.9919 54.2659C75.9919 52.6786 77.7777 51.0913 81.7459 51.0913C85.1189 51.0913 87.4999 51.6866 89.2856 52.4802L90.2776 52.877L91.8649 45.1389Z" fill="#293688"/>
<path d="M108.928 44.7421C106.547 44.7421 104.762 44.9405 103.77 47.3214L88.8887 80.4563H99.603L101.587 74.504H114.285L115.476 80.4563H125L116.666 44.7421H108.928V44.7421ZM104.365 68.5516C104.96 66.7659 108.333 58.0357 108.333 58.0357C108.333 58.0357 109.127 55.8532 109.722 54.4643L110.317 57.8373C110.317 57.8373 112.301 66.7659 112.698 68.75H104.365V68.5516Z" fill="#3C58BF"/>
<path d="M111.309 44.7421C108.928 44.7421 107.143 44.9405 106.151 47.3214L88.8887 80.4563H99.603L101.587 74.504H114.285L115.476 80.4563H125L116.666 44.7421H111.309V44.7421ZM104.365 68.5516C105.159 66.5675 108.333 58.0357 108.333 58.0357C108.333 58.0357 109.127 55.8532 109.722 54.4643L110.317 57.8373C110.317 57.8373 112.301 66.7659 112.698 68.75H104.365V68.5516Z" fill="#293688"/>
<path d="M27.5792 69.7421L26.5871 64.5833C24.8014 58.631 19.0474 52.0833 12.6982 48.9087L21.6268 80.6548H32.3411L48.4125 44.9405H37.6982L27.5792 69.7421Z" fill="#3C58BF"/>
<path d="M27.5792 69.7421L26.5871 64.5833C24.8014 58.631 19.0474 52.0833 12.6982 48.9087L21.6268 80.6548H32.3411L48.4125 44.9405H39.6824L27.5792 69.7421Z" fill="#293688"/>
<path d="M0 44.7421L1.78571 45.1389C14.4841 48.1151 23.2143 55.6548 26.5873 64.5833L23.0159 47.7183C22.4206 45.3373 20.6349 44.7421 18.4524 44.7421H0V44.7421Z" fill="#FFBC00"/>
<path d="M0 44.7421C12.6984 47.7183 23.2143 55.4564 26.5873 64.3849L23.2143 50.2976C22.619 47.9167 20.6349 46.5278 18.4524 46.5278L0 44.7421Z" fill="#F7981D"/>
<path d="M0 44.7421C12.6984 47.7183 23.2143 55.4564 26.5873 64.3849L24.2063 56.6468C23.6111 54.2659 22.8175 51.8849 20.0397 50.8929L0 44.7421Z" fill="#ED7C00"/>
<path d="M37.4997 68.5515L30.7536 61.8055L27.579 69.3452L26.7854 64.3849C24.9997 58.4325 19.2457 51.8849 12.8965 48.7103L21.8251 80.4563H32.5393L37.4997 68.5515Z" fill="#051244"/>
<path d="M55.9521 80.4563L47.4203 71.7261L45.833 80.4563H55.9521Z" fill="#051244"/>
<path d="M78.7697 68.1547C79.5634 68.9483 79.9602 69.5436 79.7618 70.3372C79.7618 72.7182 76.5872 73.9086 73.8094 73.9086C69.8411 73.9086 67.6586 73.3134 64.2856 71.9245L62.8967 71.3293L61.5078 79.4642C63.8888 80.4562 68.2538 81.4483 72.8173 81.4483C79.1665 81.4483 84.3253 79.6626 87.3015 76.488L78.7697 68.1547Z" fill="#051244"/>
<path d="M90.2773 80.4563H99.6027L101.587 74.5039H114.285L115.476 80.4563H125L121.627 65.9722L109.722 54.4642L110.317 57.6388C110.317 57.6388 112.301 66.5674 112.698 68.5515H104.365C105.158 66.5674 108.333 58.0357 108.333 58.0357C108.333 58.0357 109.127 55.8531 109.722 54.4642" fill="#051244"/>
</g>
<defs>
<clipPath id="clip0_0_868">
<rect width="125" height="125" fill="white"/>
</clipPath>
</defs>
</svg>
