<svg width="54" height="49" viewBox="0 0 54 49" fill="none" xmlns="http://www.w3.org/2000/svg">
<g clip-path="url(#clip0_0_895)">
<path d="M6.40334 44.9284H47.5961C49.7915 44.9284 51.5713 43.3134 51.5713 41.3213V10.1967C51.5713 8.20453 49.7915 6.58954 47.5961 6.58954H6.40334C4.2079 6.58954 2.42812 8.20453 2.42812 10.1967V41.3213C2.42812 43.3134 4.2079 44.9284 6.40334 44.9284Z" fill="url(#paint0_linear_0_895)"/>
<path d="M7.3221 44.0734H46.6776C48.7751 44.0734 50.4756 42.5303 50.4756 40.627V10.8907C50.4756 8.98736 48.7752 7.44434 46.6776 7.44434H7.3222C5.22464 7.44434 3.52417 8.98726 3.52417 10.8907V40.6271C3.52406 42.5304 5.22454 44.0734 7.3221 44.0734Z" fill="url(#paint1_linear_0_895)"/>
<path d="M5.092 16.6572L15.0003 1.08476C15.6602 0.0474299 17.1221 -0.308012 18.2653 0.290994L49.5049 16.6572H5.092Z" fill="url(#paint2_linear_0_895)"/>
<path d="M51.5713 29.1904H2.42812V17.3794C2.42812 15.8887 3.75988 14.6802 5.40276 14.6802H48.5966C50.2395 14.6802 51.5713 15.8887 51.5713 17.3794V29.1904Z" fill="url(#paint3_linear_0_895)"/>
<path d="M51.5713 24.7484V41.3213C51.5713 43.3134 49.7915 44.9285 47.596 44.9285H6.40334C4.2079 44.9285 2.42812 43.3135 2.42812 41.3214V24.7484C2.42812 23.5179 3.52742 22.5204 4.88343 22.5204H49.116C50.472 22.5204 51.5713 23.5178 51.5713 24.7484Z" fill="url(#paint4_linear_0_895)"/>
<path d="M9.84277 16.2003V44.9286H6.40396C4.20852 44.9286 2.42873 43.3136 2.42873 41.3214V22.9279L9.84277 16.2003Z" fill="url(#paint5_linear_0_895)"/>
<path d="M13.1942 48.9729L47.6916 45.3374C49.9031 45.1042 51.5713 43.4046 51.5713 41.3844V9.9278C51.5713 10.6038 51.013 11.1725 50.2732 11.2505L12.1824 15.2649C9.97093 15.498 8.30273 17.1976 8.30273 19.2178V45.0201C8.30273 47.3998 10.5892 49.2476 13.1942 48.9729Z" fill="url(#paint6_linear_0_895)"/>
<path d="M13.1942 42.6896L47.6916 39.0541C49.9031 38.8209 51.5713 37.1213 51.5713 35.1011V41.3844C51.5713 43.4046 49.9031 45.1043 47.6916 45.3373L13.1942 48.9729C10.5892 49.2475 8.30262 47.3997 8.30262 45.02V38.7367C8.30273 41.1165 10.5892 42.9641 13.1942 42.6896Z" fill="url(#paint7_linear_0_895)"/>
<path d="M48.4788 14.8307C48.5077 14.8307 48.537 14.8292 48.5664 14.8263L50.1451 14.6688C50.5811 14.6253 50.8957 14.2694 50.8477 13.8739C50.7997 13.4783 50.4073 13.1932 49.9717 13.2363L48.393 13.3938C47.957 13.4374 47.6424 13.7932 47.6904 14.1887C47.7351 14.5577 48.0791 14.8307 48.4788 14.8307Z" fill="url(#paint8_linear_0_895)"/>
<path d="M16.0399 46.5989C16.0733 46.5989 16.1072 46.5969 16.1412 46.5931L19.2094 46.2391C19.6443 46.1889 19.9523 45.8281 19.8969 45.4332C19.8415 45.0385 19.444 44.7607 19.0089 44.8093L15.9407 45.1633C15.5057 45.2135 15.1977 45.5743 15.2531 45.9692C15.3043 46.333 15.646 46.5989 16.0399 46.5989ZM13.0199 46.2422C13.3178 46.2422 13.6035 46.0894 13.7388 45.8285C13.9258 45.4685 13.7557 45.0391 13.3589 44.8696C12.5532 44.5251 11.9473 43.9538 11.6964 43.3018C11.5518 42.9263 11.0987 42.7282 10.6849 42.8591C10.2709 42.9903 10.0524 43.4013 10.197 43.777C10.5932 44.8066 11.4757 45.6577 12.682 46.1733C12.7914 46.22 12.9064 46.2422 13.0199 46.2422ZM22.1762 45.8909C22.2095 45.8909 22.2435 45.8889 22.2775 45.885L25.3456 45.531C25.7806 45.4809 26.0887 45.1201 26.0332 44.7252C25.9778 44.3305 25.5803 44.0526 25.1451 44.1013L22.077 44.4553C21.642 44.5055 21.3339 44.8663 21.3894 45.2612C21.4406 45.6249 21.7825 45.8909 22.1762 45.8909ZM28.3125 45.1828C28.3458 45.1828 28.3797 45.1808 28.4137 45.1769L31.4819 44.8229C31.9169 44.7728 32.2249 44.412 32.1695 44.0171C32.1141 43.6224 31.7165 43.3432 31.2814 43.3932L28.2132 43.7472C27.7783 43.7974 27.4702 44.1582 27.5257 44.553C27.5768 44.9168 27.9188 45.1828 28.3125 45.1828ZM34.449 44.4747C34.4823 44.4747 34.5161 44.4727 34.5502 44.4688L37.6185 44.1147C38.0536 44.0645 38.3615 43.7038 38.3061 43.3089C38.2507 42.9141 37.853 42.6362 37.418 42.685L34.3497 43.0391C33.9147 43.0894 33.6067 43.4501 33.6622 43.8449C33.7131 44.2089 34.055 44.4747 34.449 44.4747ZM40.5852 43.7666C40.6186 43.7666 40.6524 43.7646 40.6865 43.7607L43.7548 43.4066C44.1898 43.3564 44.4978 42.9957 44.4423 42.6008C44.387 42.206 43.9892 41.928 43.5543 41.9769L40.486 42.331C40.0509 42.3813 39.743 42.742 39.7984 43.1368C39.8495 43.5008 40.1913 43.7666 40.5852 43.7666ZM10.7685 41.4721C11.2071 41.4721 11.5626 41.1496 11.5626 40.7515V37.945C11.5626 37.547 11.2071 37.2245 10.7685 37.2245C10.3298 37.2245 9.97442 37.547 9.97442 37.945V40.7515C9.97432 41.1496 10.3297 41.4721 10.7685 41.4721ZM10.7685 35.8592C11.2071 35.8592 11.5626 35.5367 11.5626 35.1386V32.3321C11.5626 31.9341 11.2071 31.6116 10.7685 31.6116C10.3298 31.6116 9.97442 31.9341 9.97442 32.3321V35.1386C9.97432 35.5366 10.3297 35.8592 10.7685 35.8592ZM10.7685 30.2462C11.2071 30.2462 11.5626 29.9237 11.5626 29.5256V26.7192C11.5626 26.3211 11.2071 25.9986 10.7685 25.9986C10.3298 25.9986 9.97442 26.3211 9.97442 26.7192V29.5256C9.97432 29.9236 10.3297 30.2462 10.7685 30.2462ZM10.7685 24.6332C11.2071 24.6332 11.5626 24.3107 11.5626 23.9127V21.1062C11.5626 20.7081 11.2071 20.3856 10.7685 20.3856C10.3298 20.3856 9.97442 20.7081 9.97442 21.1062V23.9127C9.97432 24.3106 10.3297 24.6332 10.7685 24.6332ZM11.8791 19.3078C12.0751 19.3078 12.2716 19.2422 12.4251 19.1103C13.0137 18.6042 13.8306 18.2818 14.7255 18.2022L14.7465 18.2002C15.1826 18.1576 15.498 17.8023 15.451 17.4067C15.4041 17.0109 15.0126 16.7246 14.5764 16.7674L14.5629 16.7687C13.3261 16.8787 12.1763 17.339 11.3326 18.0641C11.0142 18.3379 11.0007 18.794 11.3024 19.0829C11.4587 19.2323 11.6687 19.3078 11.8791 19.3078ZM17.735 17.8977C17.7639 17.8977 17.7932 17.8962 17.8227 17.8933L20.897 17.5866C21.3329 17.543 21.6476 17.1872 21.5996 16.7917C21.5516 16.3961 21.1592 16.1114 20.7236 16.1541L17.6493 16.4608C17.2134 16.5044 16.8987 16.8602 16.9466 17.2557C16.9913 17.6246 17.3354 17.8977 17.735 17.8977ZM23.8835 17.2843C23.9124 17.2843 23.9417 17.2827 23.9712 17.2799L27.0456 16.9731C27.4815 16.9296 27.7962 16.5738 27.7482 16.1782C27.7003 15.7826 27.3073 15.4976 26.8722 15.5406L23.7978 15.8474C23.3619 15.8909 23.0472 16.2467 23.0952 16.6423C23.1399 17.0112 23.4839 17.2843 23.8835 17.2843ZM30.0324 16.6709C30.0613 16.6709 30.0906 16.6694 30.12 16.6665L33.1943 16.3598C33.6302 16.3162 33.9449 15.9604 33.8969 15.5649C33.8491 15.1693 33.4568 14.8843 33.0209 14.9273L29.9466 15.234C29.5107 15.2776 29.196 15.6334 29.244 16.0289C29.2886 16.3978 29.6326 16.6709 30.0324 16.6709ZM36.1811 16.0575C36.21 16.0575 36.2393 16.056 36.2687 16.0531L39.343 15.7464C39.779 15.7029 40.0937 15.347 40.0457 14.9515C39.9978 14.556 39.606 14.2711 39.1696 14.3139L36.0953 14.6206C35.6594 14.6642 35.3447 15.02 35.3927 15.4156C35.4372 15.7844 35.7814 16.0575 36.1811 16.0575ZM42.3298 15.4441C42.3587 15.4441 42.388 15.4425 42.4174 15.4397L45.4918 15.1329C45.9277 15.0894 46.2424 14.7336 46.1944 14.338C46.1464 13.9426 45.7545 13.6578 45.3184 13.7005L42.2441 14.0072C41.808 14.0507 41.4934 14.4066 41.5414 14.8021C41.586 15.1709 41.9302 15.4441 42.3298 15.4441Z" fill="url(#paint9_linear_0_895)"/>
<path d="M46.7297 43.0575C46.7631 43.0575 46.7968 43.0556 46.8309 43.0516L48.4065 42.8699C48.8415 42.8198 49.1496 42.459 49.0941 42.0642C49.0389 41.6694 48.6412 41.3901 48.2062 41.4402L46.6306 41.6219C46.1955 41.6721 45.8875 42.0329 45.9429 42.4277C45.994 42.7916 46.3359 43.0575 46.7297 43.0575Z" fill="url(#paint10_linear_0_895)"/>
<path d="M17.5528 5.36588L22.6352 7.87541C23.2972 8.20224 24.1259 7.9803 24.4861 7.37957C24.8463 6.77884 24.6017 6.0269 23.9397 5.69998L18.8573 3.19055C18.1952 2.86372 17.3666 3.08566 17.0063 3.68639C16.6461 4.28702 16.8907 5.03906 17.5528 5.36588Z" fill="#61DB99"/>
<path d="M8.30304 34.8188L13.3467 30.2422C14.0583 29.539 15.0794 29.098 16.2144 29.098C18.3644 29.098 20.1074 30.6797 20.1074 32.6306C20.1074 33.6605 19.6214 34.5872 18.8465 35.2328L8.30293 44.8001V34.8188H8.30304Z" fill="url(#paint11_linear_0_895)"/>
<path d="M16.2153 36.1627C14.0653 36.1627 12.3223 34.5811 12.3223 32.6301C12.3223 30.6791 14.0653 29.0975 16.2153 29.0975C18.3654 29.0975 20.1084 30.6791 20.1084 32.6301C20.1084 34.5811 18.3654 36.1627 16.2153 36.1627Z" fill="url(#paint12_linear_0_895)"/>
<path d="M16.2147 35.0681C14.7308 35.0681 13.5279 33.9766 13.5279 32.6301C13.5279 31.2837 14.7308 30.1922 16.2147 30.1922C17.6985 30.1922 18.9014 31.2837 18.9014 32.6301C18.9014 33.9766 17.6985 35.0681 16.2147 35.0681Z" fill="url(#paint13_linear_0_895)"/>
<path d="M17.2351 32.2085C16.9281 32.2085 16.6792 31.9826 16.6792 31.704C16.6792 31.4254 16.9281 31.1996 17.2351 31.1996C17.5421 31.1996 17.791 31.4254 17.791 31.704C17.791 31.9826 17.5421 32.2085 17.2351 32.2085Z" fill="url(#paint14_linear_0_895)"/>
<path d="M15.1941 32.2085C14.8871 32.2085 14.6382 31.9826 14.6382 31.704C14.6382 31.4254 14.8871 31.1996 15.1941 31.1996C15.5011 31.1996 15.75 31.4254 15.75 31.704C15.75 31.9826 15.5011 32.2085 15.1941 32.2085Z" fill="url(#paint15_linear_0_895)"/>
<path d="M17.2351 34.0618C16.9281 34.0618 16.6792 33.8359 16.6792 33.5573C16.6792 33.2787 16.9281 33.0529 17.2351 33.0529C17.5421 33.0529 17.791 33.2787 17.791 33.5573C17.791 33.8359 17.5421 34.0618 17.2351 34.0618Z" fill="url(#paint16_linear_0_895)"/>
<path d="M15.1941 34.0618C14.8871 34.0618 14.6382 33.8359 14.6382 33.5573C14.6382 33.2787 14.8871 33.0529 15.1941 33.0529C15.5011 33.0529 15.75 33.2787 15.75 33.5573C15.75 33.8359 15.5011 34.0618 15.1941 34.0618Z" fill="url(#paint17_linear_0_895)"/>
</g>
<defs>
<linearGradient id="paint0_linear_0_895" x1="26.1966" y1="4.37969" x2="26.433" y2="12.0151" gradientUnits="userSpaceOnUse">
<stop stop-color="#FFB92D"/>
<stop offset="1" stop-color="#F59500"/>
</linearGradient>
<linearGradient id="paint1_linear_0_895" x1="24.821" y1="9.44831" x2="25.4661" y2="15.3115" gradientUnits="userSpaceOnUse">
<stop stop-color="#FFB92D"/>
<stop offset="1" stop-color="#F59500"/>
</linearGradient>
<linearGradient id="paint2_linear_0_895" x1="27.299" y1="9.6212" x2="27.299" y2="14.0763" gradientUnits="userSpaceOnUse">
<stop stop-color="#A7F3CE"/>
<stop offset="1" stop-color="#61DB99"/>
</linearGradient>
<linearGradient id="paint3_linear_0_895" x1="27.0003" y1="17.3333" x2="27.0003" y2="29.8348" gradientUnits="userSpaceOnUse">
<stop stop-color="#FF4C54"/>
<stop offset="1" stop-color="#BE3F45"/>
</linearGradient>
<linearGradient id="paint4_linear_0_895" x1="27.0003" y1="26.6162" x2="27.0003" y2="45.9237" gradientUnits="userSpaceOnUse">
<stop stop-color="#FF4C54"/>
<stop offset="1" stop-color="#BE3F45"/>
</linearGradient>
<linearGradient id="paint5_linear_0_895" x1="5.22452" y1="30.5648" x2="8.80962" y2="30.5648" gradientUnits="userSpaceOnUse">
<stop stop-color="#BE3F45" stop-opacity="0"/>
<stop offset="1" stop-color="#BE3F45"/>
</linearGradient>
<linearGradient id="paint6_linear_0_895" x1="37.2871" y1="27.2252" x2="19.7107" y2="36.1602" gradientUnits="userSpaceOnUse">
<stop stop-color="#FFB92D"/>
<stop offset="1" stop-color="#F59500"/>
</linearGradient>
<linearGradient id="paint7_linear_0_895" x1="30.5185" y1="44.2222" x2="31.141" y2="49.4663" gradientUnits="userSpaceOnUse">
<stop stop-color="#BE3F45" stop-opacity="0"/>
<stop offset="1" stop-color="#BE3F45"/>
</linearGradient>
<linearGradient id="paint8_linear_0_895" x1="49.2692" y1="13.2327" x2="49.2692" y2="46.6681" gradientUnits="userSpaceOnUse">
<stop stop-color="#FFF465"/>
<stop offset="1" stop-color="#FFE600"/>
</linearGradient>
<linearGradient id="paint9_linear_0_895" x1="28.0873" y1="13.2337" x2="28.0873" y2="46.5991" gradientUnits="userSpaceOnUse">
<stop stop-color="#FFF465"/>
<stop offset="1" stop-color="#FFE600"/>
</linearGradient>
<linearGradient id="paint10_linear_0_895" x1="47.5187" y1="13.2317" x2="47.5187" y2="46.6663" gradientUnits="userSpaceOnUse">
<stop stop-color="#FFF465"/>
<stop offset="1" stop-color="#FFE600"/>
</linearGradient>
<linearGradient id="paint11_linear_0_895" x1="11.0191" y1="37.346" x2="20.8722" y2="26.4874" gradientUnits="userSpaceOnUse">
<stop stop-color="#BE3F45" stop-opacity="0"/>
<stop offset="1" stop-color="#BE3F45"/>
</linearGradient>
<linearGradient id="paint12_linear_0_895" x1="16.2162" y1="30.4131" x2="16.2162" y2="35.5215" gradientUnits="userSpaceOnUse">
<stop stop-color="#FF4C54"/>
<stop offset="1" stop-color="#BE3F45"/>
</linearGradient>
<linearGradient id="paint13_linear_0_895" x1="16.2155" y1="34.161" x2="16.2155" y2="30.636" gradientUnits="userSpaceOnUse">
<stop stop-color="#FF4C54"/>
<stop offset="1" stop-color="#BE3F45"/>
</linearGradient>
<linearGradient id="paint14_linear_0_895" x1="22.505" y1="10.5897" x2="21.5816" y2="15.0834" gradientUnits="userSpaceOnUse">
<stop stop-color="#A7F3CE"/>
<stop offset="1" stop-color="#61DB99"/>
</linearGradient>
<linearGradient id="paint15_linear_0_895" x1="20.464" y1="10.5899" x2="19.5406" y2="15.0836" gradientUnits="userSpaceOnUse">
<stop stop-color="#A7F3CE"/>
<stop offset="1" stop-color="#61DB99"/>
</linearGradient>
<linearGradient id="paint16_linear_0_895" x1="22.9449" y1="10.6801" x2="22.0216" y2="15.1738" gradientUnits="userSpaceOnUse">
<stop stop-color="#A7F3CE"/>
<stop offset="1" stop-color="#61DB99"/>
</linearGradient>
<linearGradient id="paint17_linear_0_895" x1="20.9039" y1="10.6803" x2="19.9805" y2="15.1741" gradientUnits="userSpaceOnUse">
<stop stop-color="#A7F3CE"/>
<stop offset="1" stop-color="#61DB99"/>
</linearGradient>
<clipPath id="clip0_0_895">
<rect width="54" height="49" fill="white" transform="matrix(-1 0 0 1 54 0)"/>
</clipPath>
</defs>
</svg>
