<svg class="product-reviews__empty-icon" viewBox="0 0 64 64" xmlns="http://www.w3.org/2000/svg">
<g fill="currentColor">
<path d="m60 0h-44c-2.211 0-4 1.789-4 4v6h-8c-2.211 0-4 1.789-4 4v30c0 2.211 1.789 4 4 4h7c0.553 0 1 0.447 1 1v11c0 1.617 0.973 3.078 2.469 3.695 0.496 0.207 1.015 0.305 1.531 0.305 1.039 0 2.062-0.406 2.828-1.172l14.156-14.156s0.516-0.672 1.672-0.672 15.344 0 15.344 0c2.211 0 4-1.789 4-4v-8h6c2.211 0 4-1.789 4-4v-28c0-2.211-1.789-4-4-4zm-8 44c0 1.105-0.895 2-2 2h-15.344c-1.947 0-2.656 1-2.656 1s-12 12-14 14c-2.141 2.141-4 0.391-4-1v-12c0-1.105-0.895-2-2-2h-8c-1.105 0-2-0.895-2-2v-30c0-1.105 0.895-2 2-2h46c1.105 0 2 0.895 2 2v30zm10-12c0 1.105-0.895 2-2 2h-6v-20c0-2.211-1.789-4-4-4h-36v-6c0-1.105 0.895-2 2-2h44c1.105 0 2 0.895 2 2v28z"/>
<path d="m13 24h13c0.553 0 1-0.447 1-1s-0.447-1-1-1h-13c-0.553 0-1 0.447-1 1s0.447 1 1 1z"/>
<path d="m41 28h-28c-0.553 0-1 0.447-1 1s0.447 1 1 1h28c0.553 0 1-0.447 1-1s-0.447-1-1-1z"/>
<path d="m34 34h-21c-0.553 0-1 0.447-1 1s0.447 1 1 1h21c0.553 0 1-0.447 1-1s-0.447-1-1-1z"/>
</g>
</svg>
