<svg width="8" height="14" viewBox="0 0 8 14" fill="none" xmlns="http://www.w3.org/2000/svg">
<path d="M7.57518 7.8957L1.68231 13.7885C1.54602 13.9249 1.36408 14 1.17008 14C0.976079 14 0.794137 13.9249 0.657843 13.7885L0.223874 13.3546C-0.0585117 13.0719 -0.0585114 12.6124 0.223875 12.3301L5.17226 7.38174L0.21839 2.42787C0.0820956 2.29147 0.00684288 2.10963 0.00684299 1.91574C0.00684311 1.72163 0.082096 1.5398 0.218391 1.40329L0.652359 0.969538C0.788762 0.833136 0.970596 0.757991 1.1646 0.757991C1.35859 0.757991 1.54054 0.833136 1.67683 0.969538L7.57518 6.86768C7.7118 7.00451 7.78683 7.1872 7.7864 7.38142C7.78683 7.57639 7.7118 7.75897 7.57518 7.8957Z" fill="currentColor"/>
</svg>
