<svg fill="currentColor" version="1.1" viewBox="0 0 462.04 462.04" xml:space="preserve" xmlns="http://www.w3.org/2000/svg">
	<path d="m457.83 158.44c-0.021-0.028-0.033-0.058-0.057-0.087l-50.184-62.48c-0.564-0.701-1.201-1.305-1.879-1.845-2.16-2.562-5.355-4.225-8.967-4.225h-331.45c-3.615 0-6.804 1.661-8.965 4.225-0.678 0.54-1.316 1.138-1.885 1.845l-50.178 62.48c-0.023 0.029-0.034 0.059-0.057 0.087-2.552 2.161-4.207 5.346-4.207 8.949v193.07c0 6.5 5.27 11.771 11.77 11.771h438.5c6.5 0 11.77-5.271 11.77-11.771v-193.07c1e-3 -3.603-1.655-6.788-4.206-8.949zm-49.314-23.826 16.873 21.005h-16.873v-21.005zm-23.541-21.27v42.274h-88.135c-2.514 0-4.955 0.805-6.979 2.293l-58.837 43.299-58.849-43.305c-2.023-1.482-4.466-2.287-6.978-2.287h-88.136v-42.274h307.91zm-331.45 42.275h-16.873l16.873-21.005v21.005zm384.98 193.07h-414.96v-169.53h137.8l62.711 46.148c4.15 3.046 9.805 3.052 13.954-5e-3l62.698-46.144h137.8v169.53z"/>
</svg>
