<svg width="36" height="36" viewBox="0 0 38 38" fill="none" xmlns="http://www.w3.org/2000/svg">
<circle cx="18" cy="18" r="18" fill="#FF4E4E"/>
<path d="M20.0273 21.5977H16.8281L16.3242 9.9375H20.5312L20.0273 21.5977ZM16.207 25.2305C16.207 24.6523 16.4141 24.1797 16.8281 23.8125C17.25 23.4375 17.7734 23.25 18.3984 23.25C19.0234 23.25 19.543 23.4375 19.957 23.8125C20.3789 24.1797 20.5898 24.6523 20.5898 25.2305C20.5898 25.8086 20.3789 26.2852 19.957 26.6602C19.543 27.0273 19.0234 27.2109 18.3984 27.2109C17.7734 27.2109 17.25 27.0273 16.8281 26.6602C16.4141 26.2852 16.207 25.8086 16.207 25.2305Z" fill="white"/>
</svg>
