<svg viewBox="0 0 21 19.688" fill="currentColor"><path d="M4.307,9.844a1.873,1.873,0,0,0-1.846,1.845v6.153a1.894,1.894,0,0,0,1.846,1.846,1.848,1.848,0,0,0,1.845-1.846V11.689A1.848,1.848,0,0,0,4.307,9.844Z"/><path d="M10.541,0A10.541,10.541,0,0,0,0,10.459v.016a3.044,3.044,0,0,1,1.846-.631h0a3.079,3.079,0,0,1,2.1-1.188,6.87,6.87,0,0,1,6.6-4.965,6.772,6.772,0,0,1,6.515,4.965,3.079,3.079,0,0,1,2.1,1.188h0A3.044,3.044,0,0,1,21,10.475v-.016A10.471,10.471,0,0,0,10.541,0Z"/><path d="M16.693,9.844a1.848,1.848,0,0,0-1.845,1.845v6.153a1.848,1.848,0,0,0,1.845,1.846,1.89,1.89,0,0,0,1.846-1.846V11.689A1.872,1.872,0,0,0,16.693,9.844Z"/><path d="M0,12.264v3.691a1.842,1.842,0,0,0,1.23,1.731V10.533A1.842,1.842,0,0,0,0,12.264Z"/><path d="M19.77,10.533v7.153A1.842,1.842,0,0,0,21,15.955V12.264A1.842,1.842,0,0,0,19.77,10.533Z"/></svg>