<svg width="15" height="12" viewBox="0 0 19 15" fill="none" xmlns="http://www.w3.org/2000/svg">
<path d="M0.396655 1.53118C3.00433 3.7396 7.57999 7.62487 8.92483 8.83631C9.10537 8.99981 9.29901 9.08294 9.50003 9.08294C9.70064 9.08294 9.89395 9.00059 10.0741 8.83787C11.4201 7.62524 15.9957 3.7396 18.6034 1.53118C18.7658 1.39395 18.7905 1.15274 18.6591 0.984967C18.3553 0.597285 17.9022 0.375 17.4167 0.375H1.58338C1.09787 0.375 0.644805 0.597285 0.34099 0.985004C0.209549 1.15274 0.234301 1.39395 0.396655 1.53118Z" fill="currentColor"/>
<path d="M18.7704 2.72819C18.6301 2.66287 18.465 2.68566 18.3483 2.78541C15.4564 5.23693 11.7656 8.37928 10.6044 9.42565C9.95262 10.014 9.04808 10.014 8.39481 9.42487C7.15706 8.30966 3.01239 4.7862 0.651715 2.78537C0.534189 2.68562 0.368756 2.66362 0.229596 2.72815C0.0896934 2.79313 0 2.93307 0 3.08729V13.0419C0 13.9151 0.710088 14.6252 1.58335 14.6252H17.4167C18.2899 14.6252 19 13.9151 19 13.0419V3.08729C19 2.93307 18.9103 2.79276 18.7704 2.72819Z" fill="currentColor"/>
</svg>
