<svg fill="currentColor" viewBox="0 0 512 512" xmlns="http://www.w3.org/2000/svg">
<g transform="translate(0 1)">
<g>
<path d="m486.4 423.96c-50.93-27.008-89.996-42.152-124.77-47.958l3.599-4.948c1.707-1.707 2.56-4.267 1.707-6.827l-7.997-31.987c2.898-4.097 5.632-8.333 8.193-12.688 31.8-10.823 47.881-29.118 50.583-56.054 13.968-0.728 26.02-13.195 26.02-27.271v-64c0-14.012-11.147-26.429-25.75-27.26-1.879-49.296-23.615-145.97-161.98-145.97-138.37 0-160.1 96.675-161.98 145.97-13.853 0.818-25.749 12.449-25.749 27.256v64c0 14.507 12.8 27.307 28.16 27.307h12.8c4.704 0 9.225-1.352 13.163-3.666 4.839 25.685 15.518 50.948 30.674 72.372l-7.997 31.987c0 1.707 0 4.267 1.707 6.827l3.599 4.948c-34.776 5.807-73.842 20.95-124.77 47.958-16.214 7.681-25.601 23.894-25.601 41.814v36.693c0 5.121 3.413 8.534 8.533 8.534h494.93c5.12 0 8.533-3.413 8.533-8.533v-36.693c1e-3 -17.067-10.239-33.281-25.599-41.814zm-230.35-19.519 20.433 46.826h-41.245l20.812-46.826zm-27.012 63.892h53.897l4.995 25.6h-64.013l5.121-25.6zm116.56-119.47 3.413 15.36-8.717 11.969c-0.556 0.455-1.071 1.006-1.523 1.684l-35.495 49.147-11.262 15.464-23.005-51.761c28.058-3.422 53.044-17.722 73.077-38.212 1.184-1.194 2.356-2.407 3.512-3.651zm33.321-53.083c4.813-11.711 8.441-23.884 10.735-36.154 3.249 1.968 6.948 3.283 10.936 3.729-1.479 12.062-6.838 23.45-21.671 32.425zm46.892-124.41v64c0 5.12-4.267 10.24-10.24 10.24h-12.8c-5.12 0-10.24-4.267-10.24-10.24v-64c0-5.12 4.267-10.24 10.24-10.24h12.8c5.12 0 10.24 4.267 10.24 10.24zm-169.81-155.31c52.597 0 141.12 17.17 144.92 128.99-3.576 0.367-7.001 1.454-10.099 3.124-10.384-64.981-67.038-115.05-134.82-115.05-67.778 0-124.43 50.055-134.82 115.02-3.052-1.648-6.46-2.737-10.104-3.099 3.808-111.82 92.329-128.99 144.92-128.99zm-137.39 219.31c0 5.12-4.267 10.24-10.24 10.24h-12.8c-5.12 0-10.24-4.267-10.24-10.24v-64c0-5.12 4.267-10.24 10.24-10.24h12.8c5.12 0 10.24 4.267 10.24 10.24v64zm17.92-65.706c0-65.707 53.76-119.47 119.47-119.47s119.47 53.76 119.47 119.47v59.733c0 28.232-7.35 54.079-19.266 75.887-20.368 5.908-49.669 9.446-91.667 9.446-5.12 0-8.533 3.413-8.533 8.533s3.413 8.533 8.533 8.533c30.745 0 56.458-1.888 77.515-5.835l-1.569 1.569c-4.293 5.724-8.824 10.943-13.558 15.649-20.093 18.719-44.058 30.058-67.152 31.181-1.162-0.499-2.465-0.75-3.77-0.75-1.312 0-2.494 0.257-3.554 0.761-14.136-0.648-28.603-5.129-42.316-12.793-13.893-7.982-26.962-19.489-38.61-34.048l-2.56-2.56-0.498-0.166c-19.164-25.134-31.929-58.199-31.929-95.407v-59.733zm106.46 221.06-23.005 51.761-11.262-15.464-35.495-49.147c-0.272-0.272-0.572-0.541-0.884-0.806l-9.356-12.847 3.413-15.36c1.155 1.244 2.327 2.456 3.509 3.649 20.034 20.49 45.022 34.791 73.08 38.214zm-225.92 75.043c0-11.093 5.973-21.333 16.213-26.453 54.393-28.896 93.548-43.399 128.43-47.731l50.922 70.018-6.465 32.326h-189.1v-28.16zm477.87 28.16h-189.1l-6.465-32.326 51.474-70.777c34.757 5.245 74.615 19.737 127.88 47.636 10.24 5.973 16.213 16.213 16.213 27.307v28.16z"/>
</g>
</g>
</svg>
