<svg width="40" height="40" viewBox="0 0 40 40" fill="none" xmlns="http://www.w3.org/2000/svg">
<path d="M34.1397 5.85573C26.328 -1.95356 13.6647 -1.95169 5.85537 5.86003C-1.95393 13.6717 -1.95206 26.335 5.85966 34.1443C13.6714 41.9536 26.3347 41.9517 34.144 34.14C37.8944 30.3884 40.0008 25.3005 39.9997 19.9957C39.9986 14.6918 37.8907 9.60558 34.1397 5.85573ZM30.289 27.8598C30.2881 27.8607 30.2872 27.8616 30.2863 27.8624V27.8558L29.2729 28.8624C27.9624 30.1896 26.0537 30.7356 24.2396 30.3024C22.4118 29.8132 20.6744 29.0345 19.0929 27.9958C17.6237 27.0568 16.2622 25.9592 15.0329 24.7224C13.9019 23.5997 12.8858 22.3669 11.9996 21.0424C11.0302 19.6173 10.2629 18.0648 9.71959 16.4291C9.09669 14.5075 9.61287 12.399 11.0529 10.9825L12.2396 9.79581C12.5695 9.4644 13.1056 9.46323 13.4369 9.79315C13.4378 9.79401 13.4387 9.79487 13.4396 9.79581L17.1862 13.5425C17.5176 13.8724 17.5188 14.4085 17.1889 14.7398C17.188 14.7407 17.1872 14.7415 17.1862 14.7425L14.9862 16.9425C14.355 17.5668 14.2756 18.559 14.7996 19.2758C15.5953 20.3678 16.4758 21.3954 17.4329 22.3492C18.5001 23.4209 19.6601 24.3958 20.8996 25.2625C21.6158 25.7621 22.5867 25.6778 23.2062 25.0625L25.3329 22.9025C25.6628 22.5711 26.1989 22.57 26.5302 22.8999C26.5311 22.9007 26.5319 22.9016 26.5329 22.9025L30.2862 26.6625C30.6177 26.9924 30.6189 27.5284 30.289 27.8598Z" fill="currentColor"/>
<path d="M34.1397 5.85573C26.328 -1.95356 13.6647 -1.95169 5.85537 5.86003C-1.95393 13.6717 -1.95206 26.335 5.85966 34.1443C13.6714 41.9536 26.3347 41.9517 34.144 34.14C37.8944 30.3884 40.0008 25.3005 39.9997 19.9957C39.9986 14.6918 37.8907 9.60558 34.1397 5.85573ZM30.289 27.8598C30.2881 27.8607 30.2872 27.8616 30.2863 27.8624V27.8558L29.2729 28.8624C27.9624 30.1896 26.0537 30.7356 24.2396 30.3024C22.4118 29.8132 20.6744 29.0345 19.0929 27.9958C17.6237 27.0568 16.2622 25.9592 15.0329 24.7224C13.9019 23.5997 12.8858 22.3669 11.9996 21.0424C11.0302 19.6173 10.2629 18.0648 9.71959 16.4291C9.09669 14.5075 9.61287 12.399 11.0529 10.9825L12.2396 9.79581C12.5695 9.4644 13.1056 9.46323 13.4369 9.79315C13.4378 9.79401 13.4387 9.79487 13.4396 9.79581L17.1862 13.5425C17.5176 13.8724 17.5188 14.4085 17.1889 14.7398C17.188 14.7407 17.1872 14.7415 17.1862 14.7425L14.9862 16.9425C14.355 17.5668 14.2756 18.559 14.7996 19.2758C15.5953 20.3678 16.4758 21.3954 17.4329 22.3492C18.5001 23.4209 19.6601 24.3958 20.8996 25.2625C21.6158 25.7621 22.5867 25.6778 23.2062 25.0625L25.3329 22.9025C25.6628 22.5711 26.1989 22.57 26.5302 22.8999C26.5311 22.9007 26.5319 22.9016 26.5329 22.9025L30.2862 26.6625C30.6177 26.9924 30.6189 27.5284 30.289 27.8598Z" fill="url(#paint0_linear_3577_1742)" fill-opacity="0.1"/>
<defs>
<linearGradient id="paint0_linear_3577_1742" x1="19.9996" y1="0" x2="19.9996" y2="40.0001" gradientUnits="userSpaceOnUse">
<stop stop-color="white"/>
<stop offset="1" stop-color="white" stop-opacity="0"/>
</linearGradient>
</defs>
</svg>
