<svg width="16" height="16" viewBox="0 0 24 24" fill="none" xmlns="http://www.w3.org/2000/svg">
<path d="M11.0512 0.909058C5.45905 0.909058 0.90918 5.45894 0.90918 11.0511C0.90918 16.6436 5.45905 21.1932 11.0512 21.1932C16.6437 21.1932 21.1933 16.6436 21.1933 11.0511C21.1933 5.45894 16.6437 0.909058 11.0512 0.909058ZM11.0512 19.3208C6.49137 19.3208 2.78156 15.611 2.78156 11.0512C2.78156 6.4913 6.49137 2.78144 11.0512 2.78144C15.6111 2.78144 19.3209 6.49125 19.3209 11.0511C19.3209 15.611 15.6111 19.3208 11.0512 19.3208Z" fill="currentColor"/>
<path d="M23.6652 22.3413L18.2977 16.9738C17.9319 16.608 17.3396 16.608 16.9739 16.9738C16.6081 17.3392 16.6081 17.9321 16.9739 18.2976L22.3414 23.6651C22.5242 23.8479 22.7636 23.9394 23.0033 23.9394C23.2426 23.9394 23.4823 23.8479 23.6652 23.6651C24.0309 23.2996 24.0309 22.7067 23.6652 22.3413Z" fill="currentColor"/>
</svg>
