<svg width="15" height="15" viewBox="0 0 15 15" fill="none" xmlns="http://www.w3.org/2000/svg">
<path d="M14.6483 5.85806C14.5584 5.57612 14.3117 5.37587 14.0198 5.3492L10.0549 4.98429L8.48714 1.26478C8.37154 0.992187 8.10827 0.815735 7.81575 0.815735C7.52324 0.815735 7.25997 0.992187 7.14436 1.26542L5.57656 4.98429L1.61111 5.3492C1.31975 5.3765 1.07366 5.57612 0.983213 5.85806C0.892765 6.14 0.976295 6.44924 1.1967 6.64418L4.19364 9.30827L3.30992 13.2541C3.24525 13.5442 3.35634 13.8441 3.59384 14.0181C3.72149 14.1116 3.87084 14.1592 4.02145 14.1592C4.1513 14.1592 4.28011 14.1237 4.39571 14.0536L7.81575 11.9817L11.2345 14.0536C11.4847 14.2061 11.8001 14.1922 12.037 14.0181C12.2746 13.8435 12.3856 13.5435 12.321 13.2541L11.4372 9.30827L14.4342 6.64471C14.6546 6.44924 14.7387 6.14053 14.6483 5.85806Z" fill="currentColor"/>
</svg>
